<mxfile host="app.diagrams.net" agent="Mozilla/5.0 (X11; Linux x86_64) AppleWebKit/537.36 (KHTML, like Gecko) Chrome/127.0.0.0 Safari/537.36" version="24.7.7">
  <diagram name="Page-1" id="tQXB6qDMR-qNtRFH9W0-">
    <mxGraphModel>
      <root>
        <mxCell id="0" />
        <mxCell id="1" parent="0" />
        <mxCell id="2" value="Accueil" style="whiteSpace=wrap;strokeWidth=2;" vertex="1" parent="1">
          <mxGeometry x="171" width="67" height="32" as="geometry" />
        </mxCell>
        <mxCell id="3" value="Liste_annonces" style="rounded=1;absoluteArcSize=1;arcSize=14;whiteSpace=wrap;strokeWidth=2;" vertex="1" parent="1">
          <mxGeometry x="141" y="299" width="127" height="33" as="geometry" />
        </mxCell>
        <mxCell id="4" value="Recherche_annonces" style="rounded=1;absoluteArcSize=1;arcSize=14;whiteSpace=wrap;strokeWidth=2;" vertex="1" parent="1">
          <mxGeometry x="190" y="99" width="171" height="33" as="geometry" />
        </mxCell>
        <mxCell id="5" value="Détails_annonce" style="rounded=1;absoluteArcSize=1;arcSize=14;whiteSpace=wrap;strokeWidth=2;" vertex="1" parent="1">
          <mxGeometry x="39" y="399" width="134" height="33" as="geometry" />
        </mxCell>
        <mxCell id="6" value="Filtres_annonces" style="rounded=1;absoluteArcSize=1;arcSize=14;whiteSpace=wrap;strokeWidth=2;" vertex="1" parent="1">
          <mxGeometry x="207" y="199" width="137" height="33" as="geometry" />
        </mxCell>
        <mxCell id="7" value="Contact_propriétaire" style="rounded=1;absoluteArcSize=1;arcSize=14;whiteSpace=wrap;strokeWidth=2;" vertex="1" parent="1">
          <mxGeometry x="223" y="399" width="160" height="33" as="geometry" />
        </mxCell>
        <mxCell id="8" value="Envoi_message" style="rounded=1;absoluteArcSize=1;arcSize=14;whiteSpace=wrap;strokeWidth=2;" vertex="1" parent="1">
          <mxGeometry x="239" y="499" width="129" height="33" as="geometry" />
        </mxCell>
        <mxCell id="9" value="Message_envoyé" style="rounded=1;absoluteArcSize=1;arcSize=14;whiteSpace=wrap;strokeWidth=2;" vertex="1" parent="1">
          <mxGeometry x="233" y="599" width="141" height="33" as="geometry" />
        </mxCell>
        <mxCell id="10" value="Afficher annonces" style="curved=1;startArrow=none;endArrow=block;exitX=0;exitY=0.87;entryX=0.13;entryY=0;" edge="1" parent="1" source="2" target="3">
          <mxGeometry relative="1" as="geometry">
            <Array as="points">
              <mxPoint x="64" y="66" />
              <mxPoint x="64" y="266" />
            </Array>
          </mxGeometry>
        </mxCell>
        <mxCell id="11" value="Rechercher annonces" style="curved=1;startArrow=none;endArrow=block;exitX=0.84;exitY=1;entryX=0.5;entryY=0;" edge="1" parent="1" source="2" target="4">
          <mxGeometry relative="1" as="geometry">
            <Array as="points">
              <mxPoint x="275" y="66" />
            </Array>
          </mxGeometry>
        </mxCell>
        <mxCell id="12" value="Voir détails annonce" style="curved=1;startArrow=none;endArrow=block;exitX=0.24;exitY=1;entryX=0.5;entryY=0;" edge="1" parent="1" source="3" target="5">
          <mxGeometry relative="1" as="geometry">
            <Array as="points">
              <mxPoint x="106" y="366" />
            </Array>
          </mxGeometry>
        </mxCell>
        <mxCell id="13" value="Filtrer annonces" style="curved=1;startArrow=none;endArrow=block;exitX=0.36;exitY=1;entryX=0.33;entryY=0;" edge="1" parent="1" source="4" target="6">
          <mxGeometry relative="1" as="geometry">
            <Array as="points">
              <mxPoint x="205" y="166" />
            </Array>
          </mxGeometry>
        </mxCell>
        <mxCell id="14" value="Appliquer filtres" style="curved=1;startArrow=none;endArrow=block;exitX=0.5;exitY=1;entryX=0.68;entryY=0;" edge="1" parent="1" source="6" target="3">
          <mxGeometry relative="1" as="geometry">
            <Array as="points">
              <mxPoint x="275" y="266" />
            </Array>
          </mxGeometry>
        </mxCell>
        <mxCell id="15" value="Réinitialiser filtres" style="curved=1;startArrow=none;endArrow=block;exitX=0.67;exitY=0;entryX=0.63;entryY=1;" edge="1" parent="1" source="6" target="4">
          <mxGeometry relative="1" as="geometry">
            <Array as="points">
              <mxPoint x="345" y="166" />
            </Array>
          </mxGeometry>
        </mxCell>
        <mxCell id="16" value="Contacter propriétaire" style="curved=1;startArrow=none;endArrow=block;exitX=0.76;exitY=1;entryX=0.5;entryY=0;" edge="1" parent="1" source="3" target="7">
          <mxGeometry relative="1" as="geometry">
            <Array as="points">
              <mxPoint x="303" y="366" />
            </Array>
          </mxGeometry>
        </mxCell>
        <mxCell id="17" value="Envoyer message" style="curved=1;startArrow=none;endArrow=block;exitX=0.5;exitY=1;entryX=0.5;entryY=0;" edge="1" parent="1" source="7" target="8">
          <mxGeometry relative="1" as="geometry">
            <Array as="points" />
          </mxGeometry>
        </mxCell>
        <mxCell id="18" value="Confirmer envoi" style="curved=1;startArrow=none;endArrow=block;exitX=0.5;exitY=1;entryX=0.5;entryY=0;" edge="1" parent="1" source="8" target="9">
          <mxGeometry relative="1" as="geometry">
            <Array as="points" />
          </mxGeometry>
        </mxCell>
      </root>
    </mxGraphModel>
  </diagram>
</mxfile>
